#!OML:ASF I:\Actors\actors\Patient Classification 1\Patient 1\Session 1\Subject1.ASF
:FULLY-SPECIFIED
:DEGREES
292
root -0.159492 17.6374 8.82799 14.8258 18.7745 -6.67997
lowerback 3.89951 5.70837 13.5385
upperback 0.104335 8.3041 5.17888
thorax -0.959089 4.0736 -2.35257
lowerneck 1.78929 -11.5612 -10.8677
upperneck 14.2006 -17.4356 16.6043
head 6.42754 -8.18732 5.92393
rclavicle 4.13472e-014 3.33958e-014
rhumerus 5.52813 46.2413 -42.5944
rradius 55.243
rwrist -16.809
rhand 16.2424 -32.2895
rfingers 7.12502
rthumb 41.0198 -57.1996
lclavicle 4.13472e-014 3.33958e-014
lhumerus -42.5751 -5.4872 91.4791
lradius 37.8455
lwrist 11.0411
lhand -9.39457 -8.77274
lfingers 7.12502
lthumb 16.5666 20.5401
rfemur -6.81712 24.7755 24.1232
rtibia 2.12403
rfoot -23.6172 -40.2284
rtoes 21.4056
lfemur -15.7064 -37.2015 0.934019
ltibia -0.396346
lfoot -4.79952 31.4625
ltoes -17.2425
293
root -0.162531 17.6345 8.82076 15.0625 18.7306 -6.4015
lowerback 4.016 5.59123 13.7257
upperback 0.133524 8.18607 5.57106
thorax -1.04408 4.01071 -2.05846
lowerneck 1.58484 -11.719 -8.81402
upperneck 13.1364 -17.1652 14.0209
head 5.67835 -8.11864 4.81594
rclavicle -7.55382e-014 -5.40694e-014
rhumerus 5.44595 44.5843 -43.0412
rradius 54.275
rwrist -13.8611
rhand 16.0971 -31.6134
rfingers 7.12502
rthumb 40.8833 -56.5667
lclavicle -7.55382e-014 -5.40694e-014
lhumerus -43.1297 -6.78349 91.9292
lradius 38.6938
lwrist 11.8205
lhand -8.76082 -8.2891
lfingers 7.12502
lthumb 17.1767 20.9717
rfemur -7.04756 24.7967 23.7114
rtibia 2.1462
rfoot -23.6246 -40.2437
rtoes 21.5048
lfemur -15.9766 -37.2233 0.789595
ltibia -0.338434
lfoot -4.80976 31.5097
ltoes -17.1081
294
root -0.164952 17.6332 8.8135 15.29 18.7131 -6.16645
lowerback 4.13054 5.40841 13.8702
upperback 0.0919867 7.99383 6.05329
thorax -1.23133 3.90432 -1.65325
lowerneck 1.25772 -11.7149 -8.80432
upperneck 13.1282 -17.0422 13.2408
head 5.64745 -8.08373 4.5624
rclavicle -6.12257e-014 -3.18055e-015
rhumerus 5.32313 43.8422 -43.3745
rradius 53.8002
rwrist -12.8973
rhand 16.0957 -31.246
rfingers 7.12502
rthumb 40.8821 -56.1998
lclavicle -6.12257e-014 -3.18055e-015
lhumerus -43.8527 -7.77908 92.2564
lradius 39.5483
lwrist 12.4225
lhand -7.89952 -7.9043
lfingers 7.12502
lthumb 18.0055 21.2823
rfemur -7.2927 24.8806 23.3473
rtibia 2.18879
rfoot -23.7291 -40.3224
rtoes 21.7935
lfemur -16.2734 -37.1101 0.693895
ltibia -0.270636
lfoot -4.76949 31.4133
ltoes -17.0905
295
root -0.166923 17.6309 8.80466 15.4673 18.5535 -5.7605
lowerback 4.31263 5.11507 13.7221
upperback 0.110537 7.652 6.59981
thorax -1.45404 3.7282 -1.03109
lowerneck 0.955147 -11.5925 -8.39877
upperneck 13.0534 -16.6932 11.9572
head 5.49061 -7.95141 4.12327
rclavicle 1.98785e-014 5.40694e-014
rhumerus 5.69625 43.7872 -43.3899
rradius 53.4422
rwrist -13.039
rhand 16.3184 -31.1726
rfingers 7.12502
rthumb 41.0912 -56.06
lclavicle 1.98785e-014 5.40694e-014
lhumerus -44.6849 -8.31051 92.4208
lradius 40.4874
lwrist 12.9788
lhand -7.08968 -7.66762
lfingers 7.12502
lthumb 18.7846 21.4454
rfemur -7.40627 25.0851 22.806
rtibia 2.18464
rfoot -23.8556 -40.4474
rtoes 22.0776
lfemur -16.3625 -37.2324 0.294932
ltibia -0.223009
lfoot -4.78728 31.5742
ltoes -16.9537
296
root -0.16783 17.6287 8.79543 15.6298 18.1801 -5.15235
lowerback 4.51248 4.72302 13.1656
upperback 0.228128 7.155 7.2479
thorax -1.65024 3.48661 -0.079699
lowerneck -0.14359 -11.1221 -11.3213
upperneck 15.2472 -16.307 13.2028
head 6.6738 -7.73418 4.88974
rclavicle 2.54444e-014 9.54166e-014
rhumerus 6.66655 44.1028 -42.9742
rradius 53.1322
rwrist -13.2043
rhand 16.804 -31.4543
rfingers 7.12502
rthumb 41.5469 -56.1943
lclavicle 2.54444e-014 9.54166e-014
lhumerus -45.528 -8.37016 92.5284
lradius 41.4406
lwrist 13.6416
lhand -6.55283 -7.40259
lfingers 7.12502
lthumb 19.3008 21.6596
rfemur -7.45885 25.2106 22.0214
rtibia 2.17157
rfoot -23.6951 -40.4555
rtoes 21.9206
lfemur -16.2518 -37.6644 -0.425651
ltibia -0.201977
lfoot -4.83968 32.1152
ltoes -16.5794
297
root -0.169209 17.6319 8.78948 15.8521 17.9725 -4.8624
lowerback 4.63492 4.65348 13.4087
upperback 0.259615 7.10084 7.48214
thorax -1.69395 3.45661 0.0290315
lowerneck 0.324287 -11.4663 -7.97294
upperneck 12.6499 -16.1267 9.24496
head 5.15533 -7.78677 3.25773
rclavicle 3.18055e-015 1.90833e-014
rhumerus 7.5897 45.8868 -41.4738
rradius 53.3983
rwrist -15.7159
rhand 15.9886 -31.9151
rfingers 7.12502
rthumb 40.7814 -56.9006
lclavicle 3.18055e-015 1.90833e-014
lhumerus -46.0923 -10.166 92.5018
lradius 42.2521
lwrist 14.6563
lhand -6.20958 -7.20654
lfingers 7.12502
lthumb 19.6309 21.8223
rfemur -7.72126 25.2617 21.5566
rtibia 2.23081
rfoot -23.5777 -40.4473
rtoes 21.796
lfemur -16.4411 -37.7991 -0.618392
ltibia -0.15405
lfoot -4.77946 32.3722
ltoes -16.3147
